M48
; DRILL file {KiCad 7.0.1-3b83917a11~171~ubuntu22.04.1} date Mon 03 Apr 2023 10:37:27 AM MDT
; FORMAT={-:-/ absolute / inch / decimal}
; #@! TF.CreationDate,2023-04-03T10:37:27-06:00
; #@! TF.GenerationSoftware,Kicad,Pcbnew,7.0.1-3b83917a11~171~ubuntu22.04.1
; #@! TF.FileFunction,Plated,1,2,PTH
FMAT,2
INCH
; #@! TA.AperFunction,Plated,PTH,ViaDrill
T1C0.0157
; #@! TA.AperFunction,Plated,PTH,ComponentDrill
T2C0.0295
; #@! TA.AperFunction,Plated,PTH,ComponentDrill
T3C0.0315
; #@! TA.AperFunction,Plated,PTH,ComponentDrill
T4C0.0394
%
G90
G05
T1
X6.0236Y-3.8189
X6.6535Y-3.5827
T2
X5.3331Y-3.2819
X5.3831Y-3.2819
X5.4331Y-3.2819
X5.8949Y-3.2819
X5.9449Y-3.2819
X5.9949Y-3.2819
X6.4264Y-3.2764
X6.4764Y-3.2764
X6.5264Y-3.2764
T3
X5.174Y-2.4165
X5.174Y-3.0165
X5.274Y-2.4165
X5.274Y-3.0165
X5.374Y-2.4165
X5.374Y-3.0165
X5.474Y-2.4165
X5.474Y-3.0165
X5.574Y-2.4165
X5.574Y-3.0165
X5.7315Y-2.4165
X5.7315Y-3.0165
X5.8315Y-2.4165
X5.8315Y-3.0165
X5.9315Y-2.4165
X5.9315Y-3.0165
X6.0315Y-2.4165
X6.0315Y-3.0165
X6.1315Y-2.4165
X6.1315Y-3.0165
X6.2795Y-2.4118
X6.2795Y-3.0118
X6.3795Y-2.4118
X6.3795Y-3.0118
X6.4795Y-2.4118
X6.4795Y-3.0118
X6.5795Y-2.4118
X6.5795Y-3.0118
X6.6795Y-2.4118
X6.6795Y-3.0118
T4
X4.8425Y-2.4016
X4.8425Y-2.4803
X4.8425Y-2.5591
X4.8425Y-2.687
X4.8425Y-2.9823
X4.8425Y-3.1102
X4.8425Y-3.4055
X4.8425Y-3.622
X4.8425Y-3.7205
X4.8425Y-3.8189
X4.8425Y-3.9173
X5.1512Y-3.4646
X5.1512Y-4.0646
X5.2512Y-3.4646
X5.2512Y-4.0646
X5.3512Y-3.4646
X5.3512Y-4.0646
X5.4512Y-3.4646
X5.4512Y-4.0646
X5.5512Y-3.4646
X5.5512Y-4.0646
X5.6512Y-3.4646
X5.6512Y-4.0646
X5.7512Y-3.4646
X5.7512Y-4.0646
X5.8512Y-3.4646
X5.8512Y-4.0646
X5.9512Y-3.4646
X5.9512Y-4.0646
X6.0512Y-3.4646
X6.0512Y-4.0646
X6.1512Y-3.4646
X6.1512Y-4.0646
X6.2512Y-3.4646
X6.2512Y-4.0646
X6.3512Y-3.4646
X6.3512Y-4.0646
X6.4512Y-3.4646
X6.4512Y-4.0646
X6.5512Y-3.4646
X6.5512Y-4.0646
T0
M30
