%TF.GenerationSoftware,KiCad,Pcbnew,7.0.1-3b83917a11~171~ubuntu22.04.1*%
%TF.CreationDate,2023-03-18T19:07:25-06:00*%
%TF.ProjectId,temp_reader,74656d70-5f72-4656-9164-65722e6b6963,rev?*%
%TF.SameCoordinates,Original*%
%TF.FileFunction,Copper,L2,Bot*%
%TF.FilePolarity,Positive*%
%FSLAX46Y46*%
G04 Gerber Fmt 4.6, Leading zero omitted, Abs format (unit mm)*
G04 Created by KiCad (PCBNEW 7.0.1-3b83917a11~171~ubuntu22.04.1) date 2023-03-18 19:07:25*
%MOMM*%
%LPD*%
G01*
G04 APERTURE LIST*
%TA.AperFunction,ComponentPad*%
%ADD10C,1.500000*%
%TD*%
%TA.AperFunction,ComponentPad*%
%ADD11R,1.050000X1.500000*%
%TD*%
%TA.AperFunction,ComponentPad*%
%ADD12O,1.050000X1.500000*%
%TD*%
%TA.AperFunction,ComponentPad*%
%ADD13R,1.600000X1.600000*%
%TD*%
%TA.AperFunction,ComponentPad*%
%ADD14O,1.600000X1.600000*%
%TD*%
%TA.AperFunction,ComponentPad*%
%ADD15R,1.524000X2.524000*%
%TD*%
%TA.AperFunction,ComponentPad*%
%ADD16O,1.524000X2.524000*%
%TD*%
%TA.AperFunction,ViaPad*%
%ADD17C,0.800000*%
%TD*%
%TA.AperFunction,Conductor*%
%ADD18C,0.250000*%
%TD*%
G04 APERTURE END LIST*
D10*
%TO.P,U5,1,GND*%
%TO.N,GND*%
X124000000Y-79000000D03*
%TO.P,U5,2,V+*%
%TO.N,+5V*%
X124000000Y-77000000D03*
%TO.P,U5,3,ctrl*%
%TO.N,Net-(A1-D9)*%
X124000000Y-75000000D03*
%TD*%
D11*
%TO.P,Q2,1,E*%
%TO.N,GND*%
X149730000Y-83360000D03*
D12*
%TO.P,Q2,2,B*%
%TO.N,seg2*%
X151000000Y-83360000D03*
%TO.P,Q2,3,C*%
%TO.N,Net-(Q2-C)*%
X152270000Y-83360000D03*
%TD*%
D11*
%TO.P,Q3,1,E*%
%TO.N,GND*%
X163230000Y-83220000D03*
D12*
%TO.P,Q3,2,B*%
%TO.N,seg3*%
X164500000Y-83220000D03*
%TO.P,Q3,3,C*%
%TO.N,Net-(Q3-C)*%
X165770000Y-83220000D03*
%TD*%
D10*
%TO.P,R2,1*%
%TO.N,SDA*%
X123000000Y-105000000D03*
%TO.P,R2,2*%
%TO.N,+3.3V*%
X123000000Y-97500000D03*
%TD*%
D13*
%TO.P,A1,1,TX1*%
%TO.N,unconnected-(A1-TX1-Pad1)*%
X130810000Y-106670000D03*
D14*
%TO.P,A1,2,RX1*%
%TO.N,unconnected-(A1-RX1-Pad2)*%
X133350000Y-106670000D03*
%TO.P,A1,3,~{RESET}*%
%TO.N,unconnected-(A1-~{RESET}-Pad3)*%
X135890000Y-106670000D03*
%TO.P,A1,4,GND*%
%TO.N,GND*%
X138430000Y-106670000D03*
%TO.P,A1,5,D2*%
%TO.N,vtr*%
X140970000Y-106670000D03*
%TO.P,A1,6,D3*%
%TO.N,ht*%
X143510000Y-106670000D03*
%TO.P,A1,7,D4*%
%TO.N,vtl*%
X146050000Y-106670000D03*
%TO.P,A1,8,D5*%
%TO.N,hm*%
X148590000Y-106670000D03*
%TO.P,A1,9,D6*%
%TO.N,vbr*%
X151130000Y-106670000D03*
%TO.P,A1,10,D7*%
%TO.N,hb*%
X153670000Y-106670000D03*
%TO.P,A1,11,D8*%
%TO.N,vbl*%
X156210000Y-106670000D03*
%TO.P,A1,12,D9*%
%TO.N,Net-(A1-D9)*%
X158750000Y-106670000D03*
%TO.P,A1,13,D10*%
%TO.N,unconnected-(A1-D10-Pad13)*%
X161290000Y-106670000D03*
%TO.P,A1,14,MOSI*%
%TO.N,seg3*%
X163830000Y-106670000D03*
%TO.P,A1,15,MISO*%
%TO.N,seg2*%
X166370000Y-106670000D03*
%TO.P,A1,16,SCK*%
%TO.N,seg1*%
X166370000Y-91430000D03*
%TO.P,A1,17,3V3*%
%TO.N,+3.3V*%
X163830000Y-91430000D03*
%TO.P,A1,18,AREF*%
%TO.N,unconnected-(A1-AREF-Pad18)*%
X161290000Y-91430000D03*
%TO.P,A1,19,A0*%
%TO.N,unconnected-(A1-A0-Pad19)*%
X158750000Y-91430000D03*
%TO.P,A1,20,A1*%
%TO.N,unconnected-(A1-A1-Pad20)*%
X156210000Y-91430000D03*
%TO.P,A1,21,A2*%
%TO.N,unconnected-(A1-A2-Pad21)*%
X153670000Y-91430000D03*
%TO.P,A1,22,A3*%
%TO.N,unconnected-(A1-A3-Pad22)*%
X151130000Y-91430000D03*
%TO.P,A1,23,SDA/A4*%
%TO.N,SDA*%
X148590000Y-91430000D03*
%TO.P,A1,24,SCL/A5*%
%TO.N,SCL*%
X146050000Y-91430000D03*
%TO.P,A1,25,A6*%
%TO.N,unconnected-(A1-A6-Pad25)*%
X143510000Y-91430000D03*
%TO.P,A1,26,A7*%
%TO.N,unconnected-(A1-A7-Pad26)*%
X140970000Y-91430000D03*
%TO.P,A1,27,+5V*%
%TO.N,+5V*%
X138430000Y-91430000D03*
%TO.P,A1,28,~{RESET}*%
%TO.N,unconnected-(A1-~{RESET}-Pad28)*%
X135890000Y-91430000D03*
%TO.P,A1,29,GND*%
%TO.N,GND*%
X133350000Y-91430000D03*
%TO.P,A1,30,VIN*%
%TO.N,unconnected-(A1-VIN-Pad30)*%
X130810000Y-91430000D03*
%TD*%
D15*
%TO.P,U2,1,vbl*%
%TO.N,vbl*%
X145580000Y-76620000D03*
D16*
%TO.P,U2,2,hb*%
%TO.N,hb*%
X148120000Y-76620000D03*
%TO.P,U2,3,GND*%
%TO.N,Net-(Q2-C)*%
X150660000Y-76620000D03*
%TO.P,U2,4,vbr*%
%TO.N,vbr*%
X153200000Y-76620000D03*
%TO.P,U2,5,DP*%
%TO.N,+3.3V*%
X155740000Y-76620000D03*
%TO.P,U2,6,vtr*%
%TO.N,vtr*%
X155740000Y-61380000D03*
%TO.P,U2,7,ht*%
%TO.N,ht*%
X153200000Y-61380000D03*
%TO.P,U2,8,GND*%
%TO.N,Net-(Q2-C)*%
X150660000Y-61380000D03*
%TO.P,U2,9,vtl*%
%TO.N,vtl*%
X148120000Y-61380000D03*
%TO.P,U2,10,hm*%
%TO.N,hm*%
X145580000Y-61380000D03*
%TD*%
D15*
%TO.P,U3,1,vbl*%
%TO.N,vbl*%
X159500000Y-76500000D03*
D16*
%TO.P,U3,2,hb*%
%TO.N,hb*%
X162040000Y-76500000D03*
%TO.P,U3,3,GND*%
%TO.N,Net-(Q3-C)*%
X164580000Y-76500000D03*
%TO.P,U3,4,vbr*%
%TO.N,vbr*%
X167120000Y-76500000D03*
%TO.P,U3,5,DP*%
%TO.N,unconnected-(U3-DP-Pad5)*%
X169660000Y-76500000D03*
%TO.P,U3,6,vtr*%
%TO.N,vtr*%
X169660000Y-61260000D03*
%TO.P,U3,7,ht*%
%TO.N,ht*%
X167120000Y-61260000D03*
%TO.P,U3,8,GND*%
%TO.N,Net-(Q3-C)*%
X164580000Y-61260000D03*
%TO.P,U3,9,vtl*%
%TO.N,vtl*%
X162040000Y-61260000D03*
%TO.P,U3,10,hm*%
%TO.N,hm*%
X159500000Y-61260000D03*
%TD*%
D10*
%TO.P,U4,1,V+*%
%TO.N,+3.3V*%
X124000000Y-69000000D03*
%TO.P,U4,2,SDA*%
%TO.N,SDA*%
X124000000Y-67000000D03*
%TO.P,U4,3,GND*%
%TO.N,GND*%
X124000000Y-65000000D03*
%TO.P,U4,4,SCL*%
%TO.N,SCL*%
X124000000Y-63000000D03*
%TD*%
D11*
%TO.P,Q1,1,E*%
%TO.N,GND*%
X135230000Y-83360000D03*
D12*
%TO.P,Q1,2,B*%
%TO.N,seg1*%
X136500000Y-83360000D03*
%TO.P,Q1,3,C*%
%TO.N,Net-(Q1-C)*%
X137770000Y-83360000D03*
%TD*%
D15*
%TO.P,U1,1,vbl*%
%TO.N,vbl*%
X131420000Y-76620000D03*
D16*
%TO.P,U1,2,hb*%
%TO.N,hb*%
X133960000Y-76620000D03*
%TO.P,U1,3,GND*%
%TO.N,Net-(Q1-C)*%
X136500000Y-76620000D03*
%TO.P,U1,4,vbr*%
%TO.N,vbr*%
X139040000Y-76620000D03*
%TO.P,U1,5,DP*%
%TO.N,unconnected-(U1-DP-Pad5)*%
X141580000Y-76620000D03*
%TO.P,U1,6,vtr*%
%TO.N,vtr*%
X141580000Y-61380000D03*
%TO.P,U1,7,ht*%
%TO.N,ht*%
X139040000Y-61380000D03*
%TO.P,U1,8,GND*%
%TO.N,Net-(Q1-C)*%
X136500000Y-61380000D03*
%TO.P,U1,9,vtl*%
%TO.N,vtl*%
X133960000Y-61380000D03*
%TO.P,U1,10,hm*%
%TO.N,hm*%
X131420000Y-61380000D03*
%TD*%
D10*
%TO.P,R1,1*%
%TO.N,SCL*%
X123000000Y-93000000D03*
%TO.P,R1,2*%
%TO.N,+3.3V*%
X123000000Y-85500000D03*
%TD*%
D17*
%TO.N,seg2*%
X169000000Y-95500000D03*
X169000000Y-99500000D03*
%TO.N,+5V*%
X133000000Y-84000000D03*
%TO.N,vtl*%
X158500000Y-101000000D03*
%TD*%
D18*
%TO.N,+3.3V*%
X154287000Y-73287000D02*
X155740000Y-74740000D01*
X155740000Y-74740000D02*
X155740000Y-76620000D01*
%TO.N,Net-(A1-D9)*%
X121000000Y-78000000D02*
X124000000Y-75000000D01*
X155970000Y-109450000D02*
X125450000Y-109450000D01*
X158750000Y-106670000D02*
X155970000Y-109450000D01*
X121000000Y-105000000D02*
X121000000Y-78000000D01*
X125450000Y-109450000D02*
X121000000Y-105000000D01*
%TO.N,SDA*%
X144925000Y-95095000D02*
X144925000Y-107075000D01*
X127000000Y-109000000D02*
X123000000Y-105000000D01*
X144925000Y-107075000D02*
X143000000Y-109000000D01*
X143000000Y-109000000D02*
X127000000Y-109000000D01*
X148590000Y-91430000D02*
X144925000Y-95095000D01*
%TO.N,SCL*%
X139555000Y-97925000D02*
X146050000Y-91430000D01*
X138000000Y-108000000D02*
X138690991Y-108000000D01*
X123000000Y-93000000D02*
X130000000Y-93000000D01*
X139555000Y-107135991D02*
X139555000Y-97925000D01*
X137169009Y-100169009D02*
X137169009Y-107169009D01*
X138690991Y-108000000D02*
X139555000Y-107135991D01*
X137169009Y-107169009D02*
X138000000Y-108000000D01*
X130000000Y-93000000D02*
X137169009Y-100169009D01*
%TO.N,Net-(Q1-C)*%
X137770000Y-77890000D02*
X136500000Y-76620000D01*
X137770000Y-83360000D02*
X137770000Y-77890000D01*
%TO.N,GND*%
X130870000Y-79000000D02*
X135230000Y-83360000D01*
X149730000Y-83360000D02*
X149730000Y-84770000D01*
X135230000Y-86770000D02*
X135230000Y-89550000D01*
X125000000Y-73000000D02*
X122000000Y-70000000D01*
X124000000Y-79000000D02*
X125075000Y-77925000D01*
X149730000Y-84770000D02*
X147500000Y-87000000D01*
X125075000Y-73075000D02*
X125000000Y-73000000D01*
X122000000Y-70000000D02*
X122000000Y-67000000D01*
X122000000Y-67000000D02*
X124000000Y-65000000D01*
X135230000Y-83360000D02*
X135230000Y-86770000D01*
X135230000Y-89550000D02*
X133350000Y-91430000D01*
X147500000Y-87000000D02*
X135460000Y-87000000D01*
X138430000Y-96510000D02*
X133350000Y-91430000D01*
X135460000Y-87000000D02*
X135230000Y-86770000D01*
X125075000Y-77925000D02*
X125075000Y-73075000D01*
X124000000Y-79000000D02*
X130870000Y-79000000D01*
X138430000Y-106670000D02*
X138430000Y-96510000D01*
%TO.N,seg3*%
X167500000Y-103000000D02*
X163830000Y-106670000D01*
X164500000Y-83220000D02*
X164500000Y-84000000D01*
X164500000Y-84000000D02*
X167500000Y-87000000D01*
X167500000Y-87000000D02*
X167500000Y-103000000D01*
%TO.N,seg2*%
X169000000Y-99500000D02*
X169000000Y-95500000D01*
%TO.N,hm*%
X145580000Y-59920000D02*
X147000000Y-58500000D01*
X162415000Y-105915000D02*
X160500000Y-104000000D01*
X148500000Y-105000000D02*
X148590000Y-105090000D01*
X145580000Y-59580000D02*
X145580000Y-61380000D01*
X159500000Y-60000000D02*
X159500000Y-61260000D01*
X162415000Y-107415000D02*
X162415000Y-105915000D01*
X166630991Y-108000000D02*
X163000000Y-108000000D01*
X163000000Y-108000000D02*
X162415000Y-107415000D01*
X147000000Y-58500000D02*
X158000000Y-58500000D01*
X160500000Y-104000000D02*
X149500000Y-104000000D01*
X144500000Y-58500000D02*
X145580000Y-59580000D01*
X159500000Y-61260000D02*
X162260000Y-58500000D01*
X172500000Y-60000000D02*
X172500000Y-102130991D01*
X148590000Y-105090000D02*
X148590000Y-106670000D01*
X158000000Y-58500000D02*
X159500000Y-60000000D01*
X172500000Y-102130991D02*
X166630991Y-108000000D01*
X162260000Y-58500000D02*
X171000000Y-58500000D01*
X131420000Y-59580000D02*
X132500000Y-58500000D01*
X149500000Y-104000000D02*
X148500000Y-105000000D01*
X132500000Y-58500000D02*
X144500000Y-58500000D01*
X171000000Y-58500000D02*
X172500000Y-60000000D01*
X131420000Y-61380000D02*
X131420000Y-59580000D01*
X145580000Y-61380000D02*
X145580000Y-59920000D01*
%TO.N,vbr*%
X152255000Y-100608604D02*
X147465000Y-105398604D01*
X153200000Y-87055000D02*
X152255000Y-88000000D01*
X147465000Y-107135991D02*
X148329009Y-108000000D01*
X150588198Y-74008198D02*
X153200000Y-76620000D01*
X152255000Y-88000000D02*
X152255000Y-100608604D01*
X141151802Y-74008198D02*
X150588198Y-74008198D01*
X147465000Y-105398604D02*
X147465000Y-107135991D01*
X148329009Y-108000000D02*
X149800000Y-108000000D01*
X149800000Y-108000000D02*
X151130000Y-106670000D01*
X139040000Y-76120000D02*
X141151802Y-74008198D01*
X153200000Y-76620000D02*
X153200000Y-87055000D01*
%TO.N,+5V*%
X122925000Y-81925000D02*
X122925000Y-78075000D01*
X122925000Y-78075000D02*
X124000000Y-77000000D01*
X133000000Y-84000000D02*
X125000000Y-84000000D01*
X125000000Y-84000000D02*
X122925000Y-81925000D01*
%TO.N,+3.3V*%
X150000000Y-69000000D02*
X154287000Y-73287000D01*
X154287000Y-85287000D02*
X157000000Y-88000000D01*
X157000000Y-88000000D02*
X160400000Y-88000000D01*
X160400000Y-88000000D02*
X163830000Y-91430000D01*
X124000000Y-69000000D02*
X150000000Y-69000000D01*
X154287000Y-73287000D02*
X154287000Y-85287000D01*
%TO.N,Net-(Q2-C)*%
X150660000Y-76620000D02*
X152270000Y-78230000D01*
X152270000Y-78230000D02*
X152270000Y-83360000D01*
%TO.N,Net-(Q3-C)*%
X164580000Y-61260000D02*
X164580000Y-76500000D01*
X164580000Y-76500000D02*
X165770000Y-77690000D01*
X165770000Y-77690000D02*
X165770000Y-83220000D01*
%TO.N,vtl*%
X149500000Y-64500000D02*
X160500000Y-64500000D01*
X157500000Y-73500000D02*
X157500000Y-81000000D01*
X165245000Y-94255000D02*
X158500000Y-101000000D01*
X133960000Y-61380000D02*
X133960000Y-62960000D01*
X160500000Y-64500000D02*
X162040000Y-62960000D01*
X133960000Y-62960000D02*
X135500000Y-64500000D01*
X165245000Y-88745000D02*
X165245000Y-94255000D01*
X148120000Y-61380000D02*
X148120000Y-63120000D01*
X157500000Y-81000000D02*
X165245000Y-88745000D01*
X148120000Y-62880000D02*
X148120000Y-61380000D01*
X148120000Y-63120000D02*
X149500000Y-64500000D01*
X148120000Y-61380000D02*
X148120000Y-64120000D01*
X162040000Y-62960000D02*
X162040000Y-61260000D01*
X146500000Y-64500000D02*
X148120000Y-62880000D01*
X135500000Y-64500000D02*
X146500000Y-64500000D01*
X148120000Y-64120000D02*
X157500000Y-73500000D01*
%TD*%
M02*
