%TF.GenerationSoftware,KiCad,Pcbnew,7.0.1-3b83917a11~171~ubuntu22.04.1*%
%TF.CreationDate,2023-04-03T10:37:19-06:00*%
%TF.ProjectId,temp_reader,74656d70-5f72-4656-9164-65722e6b6963,rev?*%
%TF.SameCoordinates,Original*%
%TF.FileFunction,Copper,L1,Top*%
%TF.FilePolarity,Positive*%
%FSLAX46Y46*%
G04 Gerber Fmt 4.6, Leading zero omitted, Abs format (unit mm)*
G04 Created by KiCad (PCBNEW 7.0.1-3b83917a11~171~ubuntu22.04.1) date 2023-04-03 10:37:19*
%MOMM*%
%LPD*%
G01*
G04 APERTURE LIST*
%TA.AperFunction,ComponentPad*%
%ADD10C,1.500000*%
%TD*%
%TA.AperFunction,ComponentPad*%
%ADD11O,1.050000X1.500000*%
%TD*%
%TA.AperFunction,ComponentPad*%
%ADD12R,1.050000X1.500000*%
%TD*%
%TA.AperFunction,ComponentPad*%
%ADD13R,1.600000X1.600000*%
%TD*%
%TA.AperFunction,ComponentPad*%
%ADD14O,1.600000X1.600000*%
%TD*%
%TA.AperFunction,ComponentPad*%
%ADD15R,1.524000X2.524000*%
%TD*%
%TA.AperFunction,ComponentPad*%
%ADD16O,1.524000X2.524000*%
%TD*%
%TA.AperFunction,ViaPad*%
%ADD17C,0.800000*%
%TD*%
%TA.AperFunction,Conductor*%
%ADD18C,0.250000*%
%TD*%
G04 APERTURE END LIST*
D10*
%TO.P,R2,1*%
%TO.N,SDA*%
X123000000Y-86500000D03*
%TO.P,R2,2*%
%TO.N,+3.3V*%
X123000000Y-79000000D03*
%TD*%
%TO.P,U4,4,SCL*%
%TO.N,SCL*%
X123000000Y-99500000D03*
%TO.P,U4,3,GND*%
%TO.N,GND*%
X123000000Y-97000000D03*
%TO.P,U4,2,SDA*%
%TO.N,SDA*%
X123000000Y-94500000D03*
%TO.P,U4,1,V+*%
%TO.N,+3.3V*%
X123000000Y-92000000D03*
%TD*%
%TO.P,R1,1*%
%TO.N,SCL*%
X123000000Y-75750000D03*
%TO.P,R1,2*%
%TO.N,+3.3V*%
X123000000Y-68250000D03*
%TD*%
%TO.P,U5,3,ctrl*%
%TO.N,Net-(A1-D9)*%
X123000000Y-61000000D03*
%TO.P,U5,2,V+*%
%TO.N,+5V*%
X123000000Y-63000000D03*
%TO.P,U5,1,GND*%
%TO.N,GND*%
X123000000Y-65000000D03*
%TD*%
D11*
%TO.P,Q2,3,C*%
%TO.N,Net-(Q2-C)*%
X152270000Y-83360000D03*
%TO.P,Q2,2,B*%
%TO.N,seg2*%
X151000000Y-83360000D03*
D12*
%TO.P,Q2,1,E*%
%TO.N,GND*%
X149730000Y-83360000D03*
%TD*%
D11*
%TO.P,Q3,3,C*%
%TO.N,Net-(Q3-C)*%
X165770000Y-83220000D03*
%TO.P,Q3,2,B*%
%TO.N,seg3*%
X164500000Y-83220000D03*
D12*
%TO.P,Q3,1,E*%
%TO.N,GND*%
X163230000Y-83220000D03*
%TD*%
D13*
%TO.P,A1,1,TX1*%
%TO.N,unconnected-(A1-TX1-Pad1)*%
X130840000Y-103240000D03*
D14*
%TO.P,A1,2,RX1*%
%TO.N,unconnected-(A1-RX1-Pad2)*%
X133380000Y-103240000D03*
%TO.P,A1,3,~{RESET}*%
%TO.N,unconnected-(A1-~{RESET}-Pad3)*%
X135920000Y-103240000D03*
%TO.P,A1,4,GND*%
%TO.N,GND*%
X138460000Y-103240000D03*
%TO.P,A1,5,D2*%
%TO.N,vtr*%
X141000000Y-103240000D03*
%TO.P,A1,6,D3*%
%TO.N,ht*%
X143540000Y-103240000D03*
%TO.P,A1,7,D4*%
%TO.N,vtl*%
X146080000Y-103240000D03*
%TO.P,A1,8,D5*%
%TO.N,hm*%
X148620000Y-103240000D03*
%TO.P,A1,9,D6*%
%TO.N,vbr*%
X151160000Y-103240000D03*
%TO.P,A1,10,D7*%
%TO.N,hb*%
X153700000Y-103240000D03*
%TO.P,A1,11,D8*%
%TO.N,vbl*%
X156240000Y-103240000D03*
%TO.P,A1,12,D9*%
%TO.N,Net-(A1-D9)*%
X158780000Y-103240000D03*
%TO.P,A1,13,D10*%
%TO.N,unconnected-(A1-D10-Pad13)*%
X161320000Y-103240000D03*
%TO.P,A1,14,MOSI*%
%TO.N,seg3*%
X163860000Y-103240000D03*
%TO.P,A1,15,MISO*%
%TO.N,seg2*%
X166400000Y-103240000D03*
%TO.P,A1,16,SCK*%
%TO.N,seg1*%
X166400000Y-88000000D03*
%TO.P,A1,17,3V3*%
%TO.N,+3.3V*%
X163860000Y-88000000D03*
%TO.P,A1,18,AREF*%
%TO.N,unconnected-(A1-AREF-Pad18)*%
X161320000Y-88000000D03*
%TO.P,A1,19,A0*%
%TO.N,unconnected-(A1-A0-Pad19)*%
X158780000Y-88000000D03*
%TO.P,A1,20,A1*%
%TO.N,unconnected-(A1-A1-Pad20)*%
X156240000Y-88000000D03*
%TO.P,A1,21,A2*%
%TO.N,unconnected-(A1-A2-Pad21)*%
X153700000Y-88000000D03*
%TO.P,A1,22,A3*%
%TO.N,unconnected-(A1-A3-Pad22)*%
X151160000Y-88000000D03*
%TO.P,A1,23,SDA/A4*%
%TO.N,SDA*%
X148620000Y-88000000D03*
%TO.P,A1,24,SCL/A5*%
%TO.N,SCL*%
X146080000Y-88000000D03*
%TO.P,A1,25,A6*%
%TO.N,unconnected-(A1-A6-Pad25)*%
X143540000Y-88000000D03*
%TO.P,A1,26,A7*%
%TO.N,unconnected-(A1-A7-Pad26)*%
X141000000Y-88000000D03*
%TO.P,A1,27,+5V*%
%TO.N,+5V*%
X138460000Y-88000000D03*
%TO.P,A1,28,~{RESET}*%
%TO.N,unconnected-(A1-~{RESET}-Pad28)*%
X135920000Y-88000000D03*
%TO.P,A1,29,GND*%
%TO.N,GND*%
X133380000Y-88000000D03*
%TO.P,A1,30,VIN*%
%TO.N,unconnected-(A1-VIN-Pad30)*%
X130840000Y-88000000D03*
%TD*%
D15*
%TO.P,U2,1,vbl*%
%TO.N,vbl*%
X145580000Y-76620000D03*
D16*
%TO.P,U2,2,hb*%
%TO.N,hb*%
X148120000Y-76620000D03*
%TO.P,U2,3,GND*%
%TO.N,Net-(Q2-C)*%
X150660000Y-76620000D03*
%TO.P,U2,4,vbr*%
%TO.N,vbr*%
X153200000Y-76620000D03*
%TO.P,U2,5,DP*%
%TO.N,+3.3V*%
X155740000Y-76620000D03*
%TO.P,U2,6,vtr*%
%TO.N,vtr*%
X155740000Y-61380000D03*
%TO.P,U2,7,ht*%
%TO.N,ht*%
X153200000Y-61380000D03*
%TO.P,U2,8,GND*%
%TO.N,Net-(Q2-C)*%
X150660000Y-61380000D03*
%TO.P,U2,9,vtl*%
%TO.N,vtl*%
X148120000Y-61380000D03*
%TO.P,U2,10,hm*%
%TO.N,hm*%
X145580000Y-61380000D03*
%TD*%
D15*
%TO.P,U3,1,vbl*%
%TO.N,vbl*%
X159500000Y-76500000D03*
D16*
%TO.P,U3,2,hb*%
%TO.N,hb*%
X162040000Y-76500000D03*
%TO.P,U3,3,GND*%
%TO.N,Net-(Q3-C)*%
X164580000Y-76500000D03*
%TO.P,U3,4,vbr*%
%TO.N,vbr*%
X167120000Y-76500000D03*
%TO.P,U3,5,DP*%
%TO.N,unconnected-(U3-DP-Pad5)*%
X169660000Y-76500000D03*
%TO.P,U3,6,vtr*%
%TO.N,vtr*%
X169660000Y-61260000D03*
%TO.P,U3,7,ht*%
%TO.N,ht*%
X167120000Y-61260000D03*
%TO.P,U3,8,GND*%
%TO.N,Net-(Q3-C)*%
X164580000Y-61260000D03*
%TO.P,U3,9,vtl*%
%TO.N,vtl*%
X162040000Y-61260000D03*
%TO.P,U3,10,hm*%
%TO.N,hm*%
X159500000Y-61260000D03*
%TD*%
D11*
%TO.P,Q1,3,C*%
%TO.N,Net-(Q1-C)*%
X138000000Y-83360000D03*
%TO.P,Q1,2,B*%
%TO.N,seg1*%
X136730000Y-83360000D03*
D12*
%TO.P,Q1,1,E*%
%TO.N,GND*%
X135460000Y-83360000D03*
%TD*%
D15*
%TO.P,U1,1,vbl*%
%TO.N,vbl*%
X131420000Y-76620000D03*
D16*
%TO.P,U1,2,hb*%
%TO.N,hb*%
X133960000Y-76620000D03*
%TO.P,U1,3,GND*%
%TO.N,Net-(Q1-C)*%
X136500000Y-76620000D03*
%TO.P,U1,4,vbr*%
%TO.N,vbr*%
X139040000Y-76620000D03*
%TO.P,U1,5,DP*%
%TO.N,unconnected-(U1-DP-Pad5)*%
X141580000Y-76620000D03*
%TO.P,U1,6,vtr*%
%TO.N,vtr*%
X141580000Y-61380000D03*
%TO.P,U1,7,ht*%
%TO.N,ht*%
X139040000Y-61380000D03*
%TO.P,U1,8,GND*%
%TO.N,Net-(Q1-C)*%
X136500000Y-61380000D03*
%TO.P,U1,9,vtl*%
%TO.N,vtl*%
X133960000Y-61380000D03*
%TO.P,U1,10,hm*%
%TO.N,hm*%
X131420000Y-61380000D03*
%TD*%
D17*
%TO.N,seg2*%
X169000000Y-91000000D03*
%TO.N,vtl*%
X153000000Y-97000000D03*
%TD*%
D18*
%TO.N,SCL*%
X123000000Y-99500000D02*
X121000000Y-97500000D01*
X121000000Y-97500000D02*
X121000000Y-77750000D01*
X121000000Y-77750000D02*
X123000000Y-75750000D01*
%TO.N,SDA*%
X123000000Y-94500000D02*
X142120000Y-94500000D01*
X142120000Y-94500000D02*
X148620000Y-88000000D01*
%TO.N,vbl*%
X136646396Y-85550000D02*
X133550000Y-85550000D01*
X137548198Y-86451802D02*
X136646396Y-85550000D01*
X148662793Y-86451802D02*
X137548198Y-86451802D01*
X150000000Y-87789009D02*
X148662793Y-86451802D01*
X150000000Y-92974695D02*
X150000000Y-87789009D01*
X154000000Y-96974695D02*
X150000000Y-92974695D01*
X154000000Y-99000000D02*
X154000000Y-96974695D01*
X152575000Y-103705991D02*
X152575000Y-100425000D01*
X152575000Y-100425000D02*
X154000000Y-99000000D01*
X153234009Y-104365000D02*
X152575000Y-103705991D01*
X155115000Y-104365000D02*
X153234009Y-104365000D01*
X133550000Y-85550000D02*
X131420000Y-83420000D01*
X156240000Y-103240000D02*
X155115000Y-104365000D01*
X131420000Y-83420000D02*
X131420000Y-76620000D01*
%TO.N,+5V*%
X129000000Y-69000000D02*
X123000000Y-63000000D01*
X129000000Y-82000000D02*
X129000000Y-69000000D01*
X133000000Y-86000000D02*
X129000000Y-82000000D01*
X138460000Y-88000000D02*
X136460000Y-86000000D01*
X136460000Y-86000000D02*
X133000000Y-86000000D01*
%TO.N,ht*%
X139040000Y-61380000D02*
X139040000Y-59540000D01*
X139040000Y-59540000D02*
X137500000Y-58000000D01*
X137500000Y-58000000D02*
X122000000Y-58000000D01*
X122000000Y-58000000D02*
X120000000Y-60000000D01*
X120000000Y-60000000D02*
X120000000Y-103000000D01*
X127000000Y-104000000D02*
X130000000Y-101000000D01*
X120000000Y-103000000D02*
X121000000Y-104000000D01*
X121000000Y-104000000D02*
X127000000Y-104000000D01*
X130000000Y-101000000D02*
X141300000Y-101000000D01*
X141300000Y-101000000D02*
X143540000Y-103240000D01*
%TO.N,SDA*%
X123000000Y-86500000D02*
X121925000Y-87575000D01*
X121925000Y-87575000D02*
X121925000Y-93425000D01*
X121925000Y-93425000D02*
X123000000Y-94500000D01*
%TO.N,seg2*%
X169500000Y-90500000D02*
X169000000Y-91000000D01*
X169500000Y-82500000D02*
X169500000Y-90500000D01*
%TO.N,vtl*%
X148000000Y-97000000D02*
X153000000Y-97000000D01*
X146080000Y-103240000D02*
X146080000Y-98920000D01*
X146080000Y-98920000D02*
X148000000Y-97000000D01*
%TO.N,hb*%
X160000000Y-102000000D02*
X170000000Y-92000000D01*
X153700000Y-103240000D02*
X154940000Y-102000000D01*
X154940000Y-102000000D02*
X160000000Y-102000000D01*
X170000000Y-92000000D02*
X170000000Y-82000000D01*
%TO.N,vtr*%
X162969009Y-100000000D02*
X163000000Y-100000000D01*
X160195000Y-102774009D02*
X162969009Y-100000000D01*
X163000000Y-100000000D02*
X170747000Y-92253000D01*
X160195000Y-103805000D02*
X160195000Y-102774009D01*
X170747000Y-92253000D02*
X170747000Y-62347000D01*
X159000000Y-105000000D02*
X160195000Y-103805000D01*
X141000000Y-103240000D02*
X142760000Y-105000000D01*
X142760000Y-105000000D02*
X159000000Y-105000000D01*
%TO.N,seg1*%
X136730000Y-83585000D02*
X139145000Y-86000000D01*
X139145000Y-86000000D02*
X165000000Y-86000000D01*
X165000000Y-86000000D02*
X166400000Y-87400000D01*
%TO.N,Net-(Q1-C)*%
X136500000Y-61380000D02*
X136500000Y-76620000D01*
%TO.N,GND*%
X163230000Y-83220000D02*
X160950000Y-85500000D01*
X160950000Y-85500000D02*
X151500000Y-85500000D01*
X151500000Y-85500000D02*
X149730000Y-83730000D01*
%TO.N,seg2*%
X151000000Y-83360000D02*
X151000000Y-82705000D01*
X151000000Y-82705000D02*
X152705000Y-81000000D01*
X168000000Y-81000000D02*
X169500000Y-82500000D01*
X152705000Y-81000000D02*
X168000000Y-81000000D01*
%TO.N,vbr*%
X167120000Y-76500000D02*
X164670000Y-74050000D01*
X164670000Y-74050000D02*
X155770000Y-74050000D01*
X155770000Y-74050000D02*
X153200000Y-76620000D01*
%TO.N,hb*%
X158500000Y-74500000D02*
X160040000Y-74500000D01*
X157500000Y-76897250D02*
X157500000Y-75500000D01*
X143500000Y-75000000D02*
X144500000Y-74000000D01*
X162040000Y-76500000D02*
X166040000Y-80500000D01*
X166040000Y-80500000D02*
X168500000Y-80500000D01*
X146500000Y-74000000D02*
X148120000Y-75620000D01*
X160040000Y-74500000D02*
X162040000Y-76500000D01*
X133960000Y-76620000D02*
X135547000Y-78207000D01*
X143500000Y-76737250D02*
X143500000Y-75000000D01*
X157500000Y-75500000D02*
X158500000Y-74500000D01*
X144500000Y-74000000D02*
X146500000Y-74000000D01*
X142030250Y-78207000D02*
X143500000Y-76737250D01*
X150000000Y-78500000D02*
X155897250Y-78500000D01*
X168500000Y-80500000D02*
X170000000Y-82000000D01*
X135547000Y-78207000D02*
X142030250Y-78207000D01*
X155897250Y-78500000D02*
X157500000Y-76897250D01*
X148120000Y-76620000D02*
X150000000Y-78500000D01*
%TO.N,vbl*%
X131420000Y-76620000D02*
X131420000Y-78420000D01*
X143200000Y-79000000D02*
X145580000Y-76620000D01*
X131420000Y-78420000D02*
X132000000Y-79000000D01*
X157000000Y-79000000D02*
X159500000Y-76500000D01*
X132000000Y-79000000D02*
X143200000Y-79000000D01*
X147960000Y-79000000D02*
X157000000Y-79000000D01*
X145580000Y-76620000D02*
X147960000Y-79000000D01*
%TO.N,Net-(Q2-C)*%
X142500000Y-65000000D02*
X149000000Y-65000000D01*
X149000000Y-65000000D02*
X150660000Y-66660000D01*
X140493000Y-60007000D02*
X140493000Y-62993000D01*
X141000000Y-59500000D02*
X140493000Y-60007000D01*
X150660000Y-60660000D02*
X149500000Y-59500000D01*
X140493000Y-62993000D02*
X142500000Y-65000000D01*
X150660000Y-66660000D02*
X150660000Y-76620000D01*
X149500000Y-59500000D02*
X141000000Y-59500000D01*
%TO.N,vtr*%
X169660000Y-61260000D02*
X170747000Y-62347000D01*
X168000000Y-64500000D02*
X169660000Y-62840000D01*
X155740000Y-63240000D02*
X157000000Y-64500000D01*
X143000000Y-64500000D02*
X154500000Y-64500000D01*
X169660000Y-62840000D02*
X169660000Y-61260000D01*
X157000000Y-64500000D02*
X168000000Y-64500000D01*
X141580000Y-61380000D02*
X141580000Y-63080000D01*
X155740000Y-63260000D02*
X155740000Y-61380000D01*
X155740000Y-63260000D02*
X155740000Y-63240000D01*
X141580000Y-63080000D02*
X143000000Y-64500000D01*
X154500000Y-64500000D02*
X155740000Y-63260000D01*
%TO.N,ht*%
X139040000Y-61380000D02*
X139040000Y-59460000D01*
X151500000Y-58000000D02*
X153200000Y-59700000D01*
X165500000Y-58000000D02*
X167120000Y-59620000D01*
X153200000Y-59700000D02*
X153200000Y-61380000D01*
X167120000Y-59620000D02*
X167120000Y-61260000D01*
X155000000Y-58000000D02*
X165500000Y-58000000D01*
X153300000Y-59700000D02*
X153200000Y-59700000D01*
X155000000Y-58000000D02*
X153300000Y-59700000D01*
X139040000Y-59460000D02*
X140500000Y-58000000D01*
X140500000Y-58000000D02*
X151500000Y-58000000D01*
%TD*%
M02*
