M48
; DRILL file {KiCad 7.0.1-3b83917a11~171~ubuntu22.04.1} date Sat 18 Mar 2023 07:07:34 PM MDT
; FORMAT={-:-/ absolute / inch / decimal}
; #@! TF.CreationDate,2023-03-18T19:07:34-06:00
; #@! TF.GenerationSoftware,Kicad,Pcbnew,7.0.1-3b83917a11~171~ubuntu22.04.1
; #@! TF.FileFunction,Plated,1,2,PTH
FMAT,2
INCH
; #@! TA.AperFunction,Plated,PTH,ViaDrill
T1C0.0157
; #@! TA.AperFunction,Plated,PTH,ComponentDrill
T2C0.0295
; #@! TA.AperFunction,Plated,PTH,ComponentDrill
T3C0.0315
; #@! TA.AperFunction,Plated,PTH,ComponentDrill
T4C0.0394
%
G90
G05
T1
X5.2362Y-3.3071
X6.2402Y-3.9764
X6.6535Y-3.7598
X6.6535Y-3.9173
T2
X5.324Y-3.2819
X5.374Y-3.2819
X5.424Y-3.2819
X5.8949Y-3.2819
X5.9449Y-3.2819
X5.9949Y-3.2819
X6.4264Y-3.2764
X6.4764Y-3.2764
X6.5264Y-3.2764
T3
X5.174Y-2.4165
X5.174Y-3.0165
X5.274Y-2.4165
X5.274Y-3.0165
X5.374Y-2.4165
X5.374Y-3.0165
X5.474Y-2.4165
X5.474Y-3.0165
X5.574Y-2.4165
X5.574Y-3.0165
X5.7315Y-2.4165
X5.7315Y-3.0165
X5.8315Y-2.4165
X5.8315Y-3.0165
X5.9315Y-2.4165
X5.9315Y-3.0165
X6.0315Y-2.4165
X6.0315Y-3.0165
X6.1315Y-2.4165
X6.1315Y-3.0165
X6.2795Y-2.4118
X6.2795Y-3.0118
X6.3795Y-2.4118
X6.3795Y-3.0118
X6.4795Y-2.4118
X6.4795Y-3.0118
X6.5795Y-2.4118
X6.5795Y-3.0118
X6.6795Y-2.4118
X6.6795Y-3.0118
T4
X4.8425Y-3.3661
X4.8425Y-3.6614
X4.8425Y-3.8386
X4.8425Y-4.1339
X4.8819Y-2.4803
X4.8819Y-2.5591
X4.8819Y-2.6378
X4.8819Y-2.7165
X4.8819Y-2.9528
X4.8819Y-3.0315
X4.8819Y-3.1102
X5.15Y-3.5996
X5.15Y-4.1996
X5.25Y-3.5996
X5.25Y-4.1996
X5.35Y-3.5996
X5.35Y-4.1996
X5.45Y-3.5996
X5.45Y-4.1996
X5.55Y-3.5996
X5.55Y-4.1996
X5.65Y-3.5996
X5.65Y-4.1996
X5.75Y-3.5996
X5.75Y-4.1996
X5.85Y-3.5996
X5.85Y-4.1996
X5.95Y-3.5996
X5.95Y-4.1996
X6.05Y-3.5996
X6.05Y-4.1996
X6.15Y-3.5996
X6.15Y-4.1996
X6.25Y-3.5996
X6.25Y-4.1996
X6.35Y-3.5996
X6.35Y-4.1996
X6.45Y-3.5996
X6.45Y-4.1996
X6.55Y-3.5996
X6.55Y-4.1996
T0
M30
