%TF.GenerationSoftware,KiCad,Pcbnew,7.0.1-3b83917a11~171~ubuntu22.04.1*%
%TF.CreationDate,2023-03-18T19:07:25-06:00*%
%TF.ProjectId,temp_reader,74656d70-5f72-4656-9164-65722e6b6963,rev?*%
%TF.SameCoordinates,Original*%
%TF.FileFunction,Soldermask,Top*%
%TF.FilePolarity,Negative*%
%FSLAX46Y46*%
G04 Gerber Fmt 4.6, Leading zero omitted, Abs format (unit mm)*
G04 Created by KiCad (PCBNEW 7.0.1-3b83917a11~171~ubuntu22.04.1) date 2023-03-18 19:07:25*
%MOMM*%
%LPD*%
G01*
G04 APERTURE LIST*
%ADD10C,1.500000*%
%ADD11R,1.050000X1.500000*%
%ADD12O,1.050000X1.500000*%
%ADD13R,1.600000X1.600000*%
%ADD14O,1.600000X1.600000*%
%ADD15R,1.524000X2.524000*%
%ADD16O,1.524000X2.524000*%
G04 APERTURE END LIST*
D10*
%TO.C,U5*%
X124000000Y-79000000D03*
X124000000Y-77000000D03*
X124000000Y-75000000D03*
%TD*%
D11*
%TO.C,Q2*%
X149730000Y-83360000D03*
D12*
X151000000Y-83360000D03*
X152270000Y-83360000D03*
%TD*%
D11*
%TO.C,Q3*%
X163230000Y-83220000D03*
D12*
X164500000Y-83220000D03*
X165770000Y-83220000D03*
%TD*%
D10*
%TO.C,R2*%
X123000000Y-105000000D03*
X123000000Y-97500000D03*
%TD*%
D13*
%TO.C,A1*%
X130810000Y-106670000D03*
D14*
X133350000Y-106670000D03*
X135890000Y-106670000D03*
X138430000Y-106670000D03*
X140970000Y-106670000D03*
X143510000Y-106670000D03*
X146050000Y-106670000D03*
X148590000Y-106670000D03*
X151130000Y-106670000D03*
X153670000Y-106670000D03*
X156210000Y-106670000D03*
X158750000Y-106670000D03*
X161290000Y-106670000D03*
X163830000Y-106670000D03*
X166370000Y-106670000D03*
X166370000Y-91430000D03*
X163830000Y-91430000D03*
X161290000Y-91430000D03*
X158750000Y-91430000D03*
X156210000Y-91430000D03*
X153670000Y-91430000D03*
X151130000Y-91430000D03*
X148590000Y-91430000D03*
X146050000Y-91430000D03*
X143510000Y-91430000D03*
X140970000Y-91430000D03*
X138430000Y-91430000D03*
X135890000Y-91430000D03*
X133350000Y-91430000D03*
X130810000Y-91430000D03*
%TD*%
D15*
%TO.C,U2*%
X145580000Y-76620000D03*
D16*
X148120000Y-76620000D03*
X150660000Y-76620000D03*
X153200000Y-76620000D03*
X155740000Y-76620000D03*
X155740000Y-61380000D03*
X153200000Y-61380000D03*
X150660000Y-61380000D03*
X148120000Y-61380000D03*
X145580000Y-61380000D03*
%TD*%
D15*
%TO.C,U3*%
X159500000Y-76500000D03*
D16*
X162040000Y-76500000D03*
X164580000Y-76500000D03*
X167120000Y-76500000D03*
X169660000Y-76500000D03*
X169660000Y-61260000D03*
X167120000Y-61260000D03*
X164580000Y-61260000D03*
X162040000Y-61260000D03*
X159500000Y-61260000D03*
%TD*%
D10*
%TO.C,U4*%
X124000000Y-69000000D03*
X124000000Y-67000000D03*
X124000000Y-65000000D03*
X124000000Y-63000000D03*
%TD*%
D11*
%TO.C,Q1*%
X135230000Y-83360000D03*
D12*
X136500000Y-83360000D03*
X137770000Y-83360000D03*
%TD*%
D15*
%TO.C,U1*%
X131420000Y-76620000D03*
D16*
X133960000Y-76620000D03*
X136500000Y-76620000D03*
X139040000Y-76620000D03*
X141580000Y-76620000D03*
X141580000Y-61380000D03*
X139040000Y-61380000D03*
X136500000Y-61380000D03*
X133960000Y-61380000D03*
X131420000Y-61380000D03*
%TD*%
D10*
%TO.C,R1*%
X123000000Y-93000000D03*
X123000000Y-85500000D03*
%TD*%
M02*
