%TF.GenerationSoftware,KiCad,Pcbnew,7.0.1-3b83917a11~171~ubuntu22.04.1*%
%TF.CreationDate,2023-03-18T14:24:15-06:00*%
%TF.ProjectId,temp_reader,74656d70-5f72-4656-9164-65722e6b6963,rev?*%
%TF.SameCoordinates,Original*%
%TF.FileFunction,Legend,Top*%
%TF.FilePolarity,Positive*%
%FSLAX46Y46*%
G04 Gerber Fmt 4.6, Leading zero omitted, Abs format (unit mm)*
G04 Created by KiCad (PCBNEW 7.0.1-3b83917a11~171~ubuntu22.04.1) date 2023-03-18 14:24:15*
%MOMM*%
%LPD*%
G01*
G04 APERTURE LIST*
%ADD10C,0.150000*%
%ADD11C,0.120000*%
%ADD12C,0.100000*%
G04 APERTURE END LIST*
D10*
%TO.C,A1*%
X125906904Y-99764285D02*
X125906904Y-99288095D01*
X126192619Y-99859523D02*
X125192619Y-99526190D01*
X125192619Y-99526190D02*
X126192619Y-99192857D01*
X126192619Y-98335714D02*
X126192619Y-98907142D01*
X126192619Y-98621428D02*
X125192619Y-98621428D01*
X125192619Y-98621428D02*
X125335476Y-98716666D01*
X125335476Y-98716666D02*
X125430714Y-98811904D01*
X125430714Y-98811904D02*
X125478333Y-98907142D01*
X165832619Y-100311904D02*
X166642142Y-100311904D01*
X166642142Y-100311904D02*
X166737380Y-100264285D01*
X166737380Y-100264285D02*
X166785000Y-100216666D01*
X166785000Y-100216666D02*
X166832619Y-100121428D01*
X166832619Y-100121428D02*
X166832619Y-99930952D01*
X166832619Y-99930952D02*
X166785000Y-99835714D01*
X166785000Y-99835714D02*
X166737380Y-99788095D01*
X166737380Y-99788095D02*
X166642142Y-99740476D01*
X166642142Y-99740476D02*
X165832619Y-99740476D01*
X166785000Y-99311904D02*
X166832619Y-99169047D01*
X166832619Y-99169047D02*
X166832619Y-98930952D01*
X166832619Y-98930952D02*
X166785000Y-98835714D01*
X166785000Y-98835714D02*
X166737380Y-98788095D01*
X166737380Y-98788095D02*
X166642142Y-98740476D01*
X166642142Y-98740476D02*
X166546904Y-98740476D01*
X166546904Y-98740476D02*
X166451666Y-98788095D01*
X166451666Y-98788095D02*
X166404047Y-98835714D01*
X166404047Y-98835714D02*
X166356428Y-98930952D01*
X166356428Y-98930952D02*
X166308809Y-99121428D01*
X166308809Y-99121428D02*
X166261190Y-99216666D01*
X166261190Y-99216666D02*
X166213571Y-99264285D01*
X166213571Y-99264285D02*
X166118333Y-99311904D01*
X166118333Y-99311904D02*
X166023095Y-99311904D01*
X166023095Y-99311904D02*
X165927857Y-99264285D01*
X165927857Y-99264285D02*
X165880238Y-99216666D01*
X165880238Y-99216666D02*
X165832619Y-99121428D01*
X165832619Y-99121428D02*
X165832619Y-98883333D01*
X165832619Y-98883333D02*
X165880238Y-98740476D01*
X166308809Y-97978571D02*
X166356428Y-97835714D01*
X166356428Y-97835714D02*
X166404047Y-97788095D01*
X166404047Y-97788095D02*
X166499285Y-97740476D01*
X166499285Y-97740476D02*
X166642142Y-97740476D01*
X166642142Y-97740476D02*
X166737380Y-97788095D01*
X166737380Y-97788095D02*
X166785000Y-97835714D01*
X166785000Y-97835714D02*
X166832619Y-97930952D01*
X166832619Y-97930952D02*
X166832619Y-98311904D01*
X166832619Y-98311904D02*
X165832619Y-98311904D01*
X165832619Y-98311904D02*
X165832619Y-97978571D01*
X165832619Y-97978571D02*
X165880238Y-97883333D01*
X165880238Y-97883333D02*
X165927857Y-97835714D01*
X165927857Y-97835714D02*
X166023095Y-97788095D01*
X166023095Y-97788095D02*
X166118333Y-97788095D01*
X166118333Y-97788095D02*
X166213571Y-97835714D01*
X166213571Y-97835714D02*
X166261190Y-97883333D01*
X166261190Y-97883333D02*
X166308809Y-97978571D01*
X166308809Y-97978571D02*
X166308809Y-98311904D01*
%TO.C,U5*%
X126002619Y-77761904D02*
X126812142Y-77761904D01*
X126812142Y-77761904D02*
X126907380Y-77714285D01*
X126907380Y-77714285D02*
X126955000Y-77666666D01*
X126955000Y-77666666D02*
X127002619Y-77571428D01*
X127002619Y-77571428D02*
X127002619Y-77380952D01*
X127002619Y-77380952D02*
X126955000Y-77285714D01*
X126955000Y-77285714D02*
X126907380Y-77238095D01*
X126907380Y-77238095D02*
X126812142Y-77190476D01*
X126812142Y-77190476D02*
X126002619Y-77190476D01*
X126002619Y-76238095D02*
X126002619Y-76714285D01*
X126002619Y-76714285D02*
X126478809Y-76761904D01*
X126478809Y-76761904D02*
X126431190Y-76714285D01*
X126431190Y-76714285D02*
X126383571Y-76619047D01*
X126383571Y-76619047D02*
X126383571Y-76380952D01*
X126383571Y-76380952D02*
X126431190Y-76285714D01*
X126431190Y-76285714D02*
X126478809Y-76238095D01*
X126478809Y-76238095D02*
X126574047Y-76190476D01*
X126574047Y-76190476D02*
X126812142Y-76190476D01*
X126812142Y-76190476D02*
X126907380Y-76238095D01*
X126907380Y-76238095D02*
X126955000Y-76285714D01*
X126955000Y-76285714D02*
X127002619Y-76380952D01*
X127002619Y-76380952D02*
X127002619Y-76619047D01*
X127002619Y-76619047D02*
X126955000Y-76714285D01*
X126955000Y-76714285D02*
X126907380Y-76761904D01*
%TO.C,Q2*%
X150904761Y-80357857D02*
X150809523Y-80310238D01*
X150809523Y-80310238D02*
X150714285Y-80215000D01*
X150714285Y-80215000D02*
X150571428Y-80072142D01*
X150571428Y-80072142D02*
X150476190Y-80024523D01*
X150476190Y-80024523D02*
X150380952Y-80024523D01*
X150428571Y-80262619D02*
X150333333Y-80215000D01*
X150333333Y-80215000D02*
X150238095Y-80119761D01*
X150238095Y-80119761D02*
X150190476Y-79929285D01*
X150190476Y-79929285D02*
X150190476Y-79595952D01*
X150190476Y-79595952D02*
X150238095Y-79405476D01*
X150238095Y-79405476D02*
X150333333Y-79310238D01*
X150333333Y-79310238D02*
X150428571Y-79262619D01*
X150428571Y-79262619D02*
X150619047Y-79262619D01*
X150619047Y-79262619D02*
X150714285Y-79310238D01*
X150714285Y-79310238D02*
X150809523Y-79405476D01*
X150809523Y-79405476D02*
X150857142Y-79595952D01*
X150857142Y-79595952D02*
X150857142Y-79929285D01*
X150857142Y-79929285D02*
X150809523Y-80119761D01*
X150809523Y-80119761D02*
X150714285Y-80215000D01*
X150714285Y-80215000D02*
X150619047Y-80262619D01*
X150619047Y-80262619D02*
X150428571Y-80262619D01*
X151238095Y-79357857D02*
X151285714Y-79310238D01*
X151285714Y-79310238D02*
X151380952Y-79262619D01*
X151380952Y-79262619D02*
X151619047Y-79262619D01*
X151619047Y-79262619D02*
X151714285Y-79310238D01*
X151714285Y-79310238D02*
X151761904Y-79357857D01*
X151761904Y-79357857D02*
X151809523Y-79453095D01*
X151809523Y-79453095D02*
X151809523Y-79548333D01*
X151809523Y-79548333D02*
X151761904Y-79691190D01*
X151761904Y-79691190D02*
X151190476Y-80262619D01*
X151190476Y-80262619D02*
X151809523Y-80262619D01*
%TO.C,Q3*%
X164404761Y-80217857D02*
X164309523Y-80170238D01*
X164309523Y-80170238D02*
X164214285Y-80075000D01*
X164214285Y-80075000D02*
X164071428Y-79932142D01*
X164071428Y-79932142D02*
X163976190Y-79884523D01*
X163976190Y-79884523D02*
X163880952Y-79884523D01*
X163928571Y-80122619D02*
X163833333Y-80075000D01*
X163833333Y-80075000D02*
X163738095Y-79979761D01*
X163738095Y-79979761D02*
X163690476Y-79789285D01*
X163690476Y-79789285D02*
X163690476Y-79455952D01*
X163690476Y-79455952D02*
X163738095Y-79265476D01*
X163738095Y-79265476D02*
X163833333Y-79170238D01*
X163833333Y-79170238D02*
X163928571Y-79122619D01*
X163928571Y-79122619D02*
X164119047Y-79122619D01*
X164119047Y-79122619D02*
X164214285Y-79170238D01*
X164214285Y-79170238D02*
X164309523Y-79265476D01*
X164309523Y-79265476D02*
X164357142Y-79455952D01*
X164357142Y-79455952D02*
X164357142Y-79789285D01*
X164357142Y-79789285D02*
X164309523Y-79979761D01*
X164309523Y-79979761D02*
X164214285Y-80075000D01*
X164214285Y-80075000D02*
X164119047Y-80122619D01*
X164119047Y-80122619D02*
X163928571Y-80122619D01*
X164690476Y-79122619D02*
X165309523Y-79122619D01*
X165309523Y-79122619D02*
X164976190Y-79503571D01*
X164976190Y-79503571D02*
X165119047Y-79503571D01*
X165119047Y-79503571D02*
X165214285Y-79551190D01*
X165214285Y-79551190D02*
X165261904Y-79598809D01*
X165261904Y-79598809D02*
X165309523Y-79694047D01*
X165309523Y-79694047D02*
X165309523Y-79932142D01*
X165309523Y-79932142D02*
X165261904Y-80027380D01*
X165261904Y-80027380D02*
X165214285Y-80075000D01*
X165214285Y-80075000D02*
X165119047Y-80122619D01*
X165119047Y-80122619D02*
X164833333Y-80122619D01*
X164833333Y-80122619D02*
X164738095Y-80075000D01*
X164738095Y-80075000D02*
X164690476Y-80027380D01*
%TO.C,R2*%
X123462619Y-101166666D02*
X122986428Y-101499999D01*
X123462619Y-101738094D02*
X122462619Y-101738094D01*
X122462619Y-101738094D02*
X122462619Y-101357142D01*
X122462619Y-101357142D02*
X122510238Y-101261904D01*
X122510238Y-101261904D02*
X122557857Y-101214285D01*
X122557857Y-101214285D02*
X122653095Y-101166666D01*
X122653095Y-101166666D02*
X122795952Y-101166666D01*
X122795952Y-101166666D02*
X122891190Y-101214285D01*
X122891190Y-101214285D02*
X122938809Y-101261904D01*
X122938809Y-101261904D02*
X122986428Y-101357142D01*
X122986428Y-101357142D02*
X122986428Y-101738094D01*
X122557857Y-100785713D02*
X122510238Y-100738094D01*
X122510238Y-100738094D02*
X122462619Y-100642856D01*
X122462619Y-100642856D02*
X122462619Y-100404761D01*
X122462619Y-100404761D02*
X122510238Y-100309523D01*
X122510238Y-100309523D02*
X122557857Y-100261904D01*
X122557857Y-100261904D02*
X122653095Y-100214285D01*
X122653095Y-100214285D02*
X122748333Y-100214285D01*
X122748333Y-100214285D02*
X122891190Y-100261904D01*
X122891190Y-100261904D02*
X123462619Y-100833332D01*
X123462619Y-100833332D02*
X123462619Y-100214285D01*
%TO.C,U2*%
X149098095Y-67192619D02*
X149098095Y-68002142D01*
X149098095Y-68002142D02*
X149145714Y-68097380D01*
X149145714Y-68097380D02*
X149193333Y-68145000D01*
X149193333Y-68145000D02*
X149288571Y-68192619D01*
X149288571Y-68192619D02*
X149479047Y-68192619D01*
X149479047Y-68192619D02*
X149574285Y-68145000D01*
X149574285Y-68145000D02*
X149621904Y-68097380D01*
X149621904Y-68097380D02*
X149669523Y-68002142D01*
X149669523Y-68002142D02*
X149669523Y-67192619D01*
X150098095Y-67287857D02*
X150145714Y-67240238D01*
X150145714Y-67240238D02*
X150240952Y-67192619D01*
X150240952Y-67192619D02*
X150479047Y-67192619D01*
X150479047Y-67192619D02*
X150574285Y-67240238D01*
X150574285Y-67240238D02*
X150621904Y-67287857D01*
X150621904Y-67287857D02*
X150669523Y-67383095D01*
X150669523Y-67383095D02*
X150669523Y-67478333D01*
X150669523Y-67478333D02*
X150621904Y-67621190D01*
X150621904Y-67621190D02*
X150050476Y-68192619D01*
X150050476Y-68192619D02*
X150669523Y-68192619D01*
%TO.C,U3*%
X163818095Y-67375571D02*
X163818095Y-68185094D01*
X163818095Y-68185094D02*
X163865714Y-68280332D01*
X163865714Y-68280332D02*
X163913333Y-68327952D01*
X163913333Y-68327952D02*
X164008571Y-68375571D01*
X164008571Y-68375571D02*
X164199047Y-68375571D01*
X164199047Y-68375571D02*
X164294285Y-68327952D01*
X164294285Y-68327952D02*
X164341904Y-68280332D01*
X164341904Y-68280332D02*
X164389523Y-68185094D01*
X164389523Y-68185094D02*
X164389523Y-67375571D01*
X164770476Y-67375571D02*
X165389523Y-67375571D01*
X165389523Y-67375571D02*
X165056190Y-67756523D01*
X165056190Y-67756523D02*
X165199047Y-67756523D01*
X165199047Y-67756523D02*
X165294285Y-67804142D01*
X165294285Y-67804142D02*
X165341904Y-67851761D01*
X165341904Y-67851761D02*
X165389523Y-67946999D01*
X165389523Y-67946999D02*
X165389523Y-68185094D01*
X165389523Y-68185094D02*
X165341904Y-68280332D01*
X165341904Y-68280332D02*
X165294285Y-68327952D01*
X165294285Y-68327952D02*
X165199047Y-68375571D01*
X165199047Y-68375571D02*
X164913333Y-68375571D01*
X164913333Y-68375571D02*
X164818095Y-68327952D01*
X164818095Y-68327952D02*
X164770476Y-68280332D01*
%TO.C,U4*%
X120922619Y-66761904D02*
X121732142Y-66761904D01*
X121732142Y-66761904D02*
X121827380Y-66714285D01*
X121827380Y-66714285D02*
X121875000Y-66666666D01*
X121875000Y-66666666D02*
X121922619Y-66571428D01*
X121922619Y-66571428D02*
X121922619Y-66380952D01*
X121922619Y-66380952D02*
X121875000Y-66285714D01*
X121875000Y-66285714D02*
X121827380Y-66238095D01*
X121827380Y-66238095D02*
X121732142Y-66190476D01*
X121732142Y-66190476D02*
X120922619Y-66190476D01*
X121255952Y-65285714D02*
X121922619Y-65285714D01*
X120875000Y-65523809D02*
X121589285Y-65761904D01*
X121589285Y-65761904D02*
X121589285Y-65142857D01*
%TO.C,Q1*%
X136404761Y-80357857D02*
X136309523Y-80310238D01*
X136309523Y-80310238D02*
X136214285Y-80215000D01*
X136214285Y-80215000D02*
X136071428Y-80072142D01*
X136071428Y-80072142D02*
X135976190Y-80024523D01*
X135976190Y-80024523D02*
X135880952Y-80024523D01*
X135928571Y-80262619D02*
X135833333Y-80215000D01*
X135833333Y-80215000D02*
X135738095Y-80119761D01*
X135738095Y-80119761D02*
X135690476Y-79929285D01*
X135690476Y-79929285D02*
X135690476Y-79595952D01*
X135690476Y-79595952D02*
X135738095Y-79405476D01*
X135738095Y-79405476D02*
X135833333Y-79310238D01*
X135833333Y-79310238D02*
X135928571Y-79262619D01*
X135928571Y-79262619D02*
X136119047Y-79262619D01*
X136119047Y-79262619D02*
X136214285Y-79310238D01*
X136214285Y-79310238D02*
X136309523Y-79405476D01*
X136309523Y-79405476D02*
X136357142Y-79595952D01*
X136357142Y-79595952D02*
X136357142Y-79929285D01*
X136357142Y-79929285D02*
X136309523Y-80119761D01*
X136309523Y-80119761D02*
X136214285Y-80215000D01*
X136214285Y-80215000D02*
X136119047Y-80262619D01*
X136119047Y-80262619D02*
X135928571Y-80262619D01*
X137309523Y-80262619D02*
X136738095Y-80262619D01*
X137023809Y-80262619D02*
X137023809Y-79262619D01*
X137023809Y-79262619D02*
X136928571Y-79405476D01*
X136928571Y-79405476D02*
X136833333Y-79500714D01*
X136833333Y-79500714D02*
X136738095Y-79548333D01*
%TO.C,U1*%
X135738095Y-67002619D02*
X135738095Y-67812142D01*
X135738095Y-67812142D02*
X135785714Y-67907380D01*
X135785714Y-67907380D02*
X135833333Y-67955000D01*
X135833333Y-67955000D02*
X135928571Y-68002619D01*
X135928571Y-68002619D02*
X136119047Y-68002619D01*
X136119047Y-68002619D02*
X136214285Y-67955000D01*
X136214285Y-67955000D02*
X136261904Y-67907380D01*
X136261904Y-67907380D02*
X136309523Y-67812142D01*
X136309523Y-67812142D02*
X136309523Y-67002619D01*
X137309523Y-68002619D02*
X136738095Y-68002619D01*
X137023809Y-68002619D02*
X137023809Y-67002619D01*
X137023809Y-67002619D02*
X136928571Y-67145476D01*
X136928571Y-67145476D02*
X136833333Y-67240714D01*
X136833333Y-67240714D02*
X136738095Y-67288333D01*
%TO.C,R1*%
X123462619Y-89166666D02*
X122986428Y-89499999D01*
X123462619Y-89738094D02*
X122462619Y-89738094D01*
X122462619Y-89738094D02*
X122462619Y-89357142D01*
X122462619Y-89357142D02*
X122510238Y-89261904D01*
X122510238Y-89261904D02*
X122557857Y-89214285D01*
X122557857Y-89214285D02*
X122653095Y-89166666D01*
X122653095Y-89166666D02*
X122795952Y-89166666D01*
X122795952Y-89166666D02*
X122891190Y-89214285D01*
X122891190Y-89214285D02*
X122938809Y-89261904D01*
X122938809Y-89261904D02*
X122986428Y-89357142D01*
X122986428Y-89357142D02*
X122986428Y-89738094D01*
X123462619Y-88214285D02*
X123462619Y-88785713D01*
X123462619Y-88499999D02*
X122462619Y-88499999D01*
X122462619Y-88499999D02*
X122605476Y-88595237D01*
X122605476Y-88595237D02*
X122700714Y-88690475D01*
X122700714Y-88690475D02*
X122748333Y-88785713D01*
D11*
%TO.C,A1*%
X126870000Y-108070000D02*
X129540000Y-108070000D01*
X132080000Y-108070000D02*
X170310000Y-108070000D01*
X170310000Y-108070000D02*
X170310000Y-102990000D01*
X129540000Y-105400000D02*
X129540000Y-108070000D01*
X132080000Y-105400000D02*
X132080000Y-108070000D01*
X132080000Y-105400000D02*
X129540000Y-105400000D01*
X132080000Y-105400000D02*
X167640000Y-105400000D01*
X167640000Y-105400000D02*
X167640000Y-108070000D01*
X162430000Y-102990000D02*
X162430000Y-95110000D01*
X172850000Y-102990000D02*
X162430000Y-102990000D01*
X162430000Y-95110000D02*
X172850000Y-95110000D01*
X172850000Y-95110000D02*
X172850000Y-102990000D01*
X129540000Y-92700000D02*
X167640000Y-92700000D01*
X129540000Y-92700000D02*
X129540000Y-90030000D01*
X167640000Y-92700000D02*
X167640000Y-90030000D01*
X126870000Y-90030000D02*
X126870000Y-108070000D01*
X170310000Y-90030000D02*
X170310000Y-95110000D01*
X170310000Y-90030000D02*
X126870000Y-90030000D01*
%TO.C,U5*%
X122500000Y-73500000D02*
X125500000Y-73500000D01*
X125500000Y-73500000D02*
X125500000Y-80500000D01*
X125500000Y-80500000D02*
X122500000Y-80500000D01*
X122500000Y-80500000D02*
X122500000Y-73500000D01*
%TO.C,Q2*%
X149200000Y-85210000D02*
X152800000Y-85210000D01*
X151000000Y-80760000D02*
G75*
G03*
X149161522Y-85198478I0J-2600000D01*
G01*
X152838478Y-85198478D02*
G75*
G03*
X151000000Y-80760000I-1838478J1838478D01*
G01*
%TO.C,Q3*%
X162700000Y-85070000D02*
X166300000Y-85070000D01*
X164500000Y-80620000D02*
G75*
G03*
X162661522Y-85058478I0J-2600000D01*
G01*
X166338478Y-85058478D02*
G75*
G03*
X164500000Y-80620000I-1838478J1838478D01*
G01*
D12*
%TO.C,R2*%
X123000000Y-103500000D02*
X123000000Y-104000000D01*
X123000000Y-98500000D02*
X123000000Y-99000000D01*
X122000000Y-103500000D02*
X124000000Y-103500000D01*
X124000000Y-103500000D02*
X124000000Y-99000000D01*
X124000000Y-99000000D02*
X122000000Y-99000000D01*
X122000000Y-99000000D02*
X122000000Y-103500000D01*
D11*
%TO.C,U2*%
X145360000Y-78635000D02*
X156960000Y-78635000D01*
X144250000Y-74715000D02*
X144250000Y-63285000D01*
X157070000Y-74715000D02*
X157070000Y-63285000D01*
X145660000Y-74000000D02*
X152660000Y-74000000D01*
X152660000Y-74000000D02*
X153660000Y-69000000D01*
X146660000Y-69000000D02*
X145660000Y-74000000D01*
X153660000Y-69000000D02*
X146660000Y-69000000D01*
X147660000Y-64000000D02*
X146660000Y-69000000D01*
X147660000Y-64000000D02*
X154660000Y-64000000D01*
X154660000Y-64000000D02*
X153660000Y-69000000D01*
X156960000Y-59365000D02*
X144360000Y-59365000D01*
X155107214Y-74000000D02*
G75*
G03*
X155107214Y-74000000I-447214J0D01*
G01*
%TO.C,U3*%
X159280000Y-78515000D02*
X170880000Y-78515000D01*
X158170000Y-74595000D02*
X158170000Y-63165000D01*
X170990000Y-74595000D02*
X170990000Y-63165000D01*
X159580000Y-73880000D02*
X166580000Y-73880000D01*
X166580000Y-73880000D02*
X167580000Y-68880000D01*
X160580000Y-68880000D02*
X159580000Y-73880000D01*
X167580000Y-68880000D02*
X160580000Y-68880000D01*
X161580000Y-63880000D02*
X160580000Y-68880000D01*
X161580000Y-63880000D02*
X168580000Y-63880000D01*
X168580000Y-63880000D02*
X167580000Y-68880000D01*
X170880000Y-59245000D02*
X158280000Y-59245000D01*
X169027214Y-73880000D02*
G75*
G03*
X169027214Y-73880000I-447214J0D01*
G01*
%TO.C,U4*%
X122500000Y-61500000D02*
X125500000Y-61500000D01*
X125500000Y-61500000D02*
X125500000Y-70500000D01*
X125500000Y-70500000D02*
X122500000Y-70500000D01*
X122500000Y-70500000D02*
X122500000Y-61500000D01*
%TO.C,Q1*%
X134700000Y-85210000D02*
X138300000Y-85210000D01*
X136500000Y-80760000D02*
G75*
G03*
X134661522Y-85198478I0J-2600000D01*
G01*
X138338478Y-85198478D02*
G75*
G03*
X136500000Y-80760000I-1838478J1838478D01*
G01*
%TO.C,U1*%
X131200000Y-78635000D02*
X142800000Y-78635000D01*
X130090000Y-74715000D02*
X130090000Y-63285000D01*
X142910000Y-74715000D02*
X142910000Y-63285000D01*
X131500000Y-74000000D02*
X138500000Y-74000000D01*
X138500000Y-74000000D02*
X139500000Y-69000000D01*
X132500000Y-69000000D02*
X131500000Y-74000000D01*
X139500000Y-69000000D02*
X132500000Y-69000000D01*
X133500000Y-64000000D02*
X132500000Y-69000000D01*
X133500000Y-64000000D02*
X140500000Y-64000000D01*
X140500000Y-64000000D02*
X139500000Y-69000000D01*
X142800000Y-59365000D02*
X130200000Y-59365000D01*
X140947214Y-74000000D02*
G75*
G03*
X140947214Y-74000000I-447214J0D01*
G01*
D12*
%TO.C,R1*%
X123000000Y-91500000D02*
X123000000Y-92000000D01*
X123000000Y-86500000D02*
X123000000Y-87000000D01*
X122000000Y-91500000D02*
X124000000Y-91500000D01*
X124000000Y-91500000D02*
X124000000Y-87000000D01*
X124000000Y-87000000D02*
X122000000Y-87000000D01*
X122000000Y-87000000D02*
X122000000Y-91500000D01*
%TD*%
M02*
