M48
; DRILL file {KiCad (6.0.11)} date Tue Feb  7 12:55:56 2023
; FORMAT={-:-/ absolute / inch / decimal}
; #@! TF.CreationDate,2023-02-07T12:55:56-07:00
; #@! TF.GenerationSoftware,Kicad,Pcbnew,(6.0.11)
; #@! TF.FileFunction,Plated,1,2,PTH
FMAT,2
INCH
; #@! TA.AperFunction,Plated,PTH,ViaDrill
T1C0.0157
; #@! TA.AperFunction,Plated,PTH,ComponentDrill
T2C0.0295
; #@! TA.AperFunction,Plated,PTH,ComponentDrill
T3C0.0300
; #@! TA.AperFunction,Plated,PTH,ComponentDrill
T4C0.0315
; #@! TA.AperFunction,Plated,PTH,ComponentDrill
T5C0.0394
; #@! TA.AperFunction,Plated,PTH,ComponentDrill
T6C0.0472
; #@! TA.AperFunction,Plated,PTH,ComponentDrill
T7C0.0787
%
G90
G05
T1
X5.55Y-4.0
X5.7Y-3.9
X5.8Y-3.5
X6.0Y-3.45
X6.45Y-2.85
X6.85Y-3.65
T2
X5.2425Y-3.3047
X5.2925Y-3.3047
X5.3425Y-3.3047
X5.869Y-3.2981
X5.919Y-3.2981
X5.969Y-3.2981
X6.5Y-3.3
X6.55Y-3.3
X6.6Y-3.3
T3
X4.3Y-3.65
X4.3Y-3.85
X4.3Y-4.05
T4
X5.1039Y-2.4075
X5.1039Y-3.0075
X5.2039Y-2.4075
X5.2039Y-3.0075
X5.3039Y-2.4075
X5.3039Y-3.0075
X5.4039Y-2.4075
X5.4039Y-3.0075
X5.5039Y-2.4075
X5.5039Y-3.0075
X5.7315Y-2.4
X5.7315Y-3.0
X5.8315Y-2.4
X5.8315Y-3.0
X5.9315Y-2.4
X5.9315Y-3.0
X6.0315Y-2.4
X6.0315Y-3.0
X6.1315Y-2.4
X6.1315Y-3.0
X6.3606Y-2.4
X6.3606Y-3.0
X6.4606Y-2.4
X6.4606Y-3.0
X6.5606Y-2.4
X6.5606Y-3.0
X6.6606Y-2.4
X6.6606Y-3.0
X6.7606Y-2.4
X6.7606Y-3.0
T5
X5.15Y-3.5996
X5.15Y-4.1996
X5.25Y-3.5996
X5.25Y-4.1996
X5.35Y-3.5996
X5.35Y-4.1996
X5.45Y-3.5996
X5.45Y-4.1996
X5.55Y-3.5996
X5.55Y-4.1996
X5.65Y-3.5996
X5.65Y-4.1996
X5.75Y-3.5996
X5.75Y-4.1996
X5.85Y-3.5996
X5.85Y-4.1996
X5.95Y-3.5996
X5.95Y-4.1996
X6.05Y-3.5996
X6.05Y-4.1996
X6.15Y-3.5996
X6.15Y-4.1996
X6.25Y-3.5996
X6.25Y-4.1996
X6.35Y-3.5996
X6.35Y-4.1996
X6.45Y-3.5996
X6.45Y-4.1996
X6.55Y-3.5996
X6.55Y-4.1996
T6
X4.5307Y-4.0
X4.5394Y-3.7
X4.8307Y-4.0
X4.8394Y-3.7
T7
X4.6Y-2.55
X4.6Y-2.75
X4.6Y-2.95
X4.6Y-3.15
T0
M30
