%TF.GenerationSoftware,KiCad,Pcbnew,(6.0.11)*%
%TF.CreationDate,2023-02-07T12:56:04-07:00*%
%TF.ProjectId,temp_changer,74656d70-5f63-4686-916e-6765722e6b69,rev?*%
%TF.SameCoordinates,Original*%
%TF.FileFunction,Copper,L2,Bot*%
%TF.FilePolarity,Positive*%
%FSLAX46Y46*%
G04 Gerber Fmt 4.6, Leading zero omitted, Abs format (unit mm)*
G04 Created by KiCad (PCBNEW (6.0.11)) date 2023-02-07 12:56:04*
%MOMM*%
%LPD*%
G01*
G04 APERTURE LIST*
%TA.AperFunction,ComponentPad*%
%ADD10C,2.400000*%
%TD*%
%TA.AperFunction,ComponentPad*%
%ADD11O,2.400000X2.400000*%
%TD*%
%TA.AperFunction,ComponentPad*%
%ADD12R,1.524000X2.524000*%
%TD*%
%TA.AperFunction,ComponentPad*%
%ADD13O,1.524000X2.524000*%
%TD*%
%TA.AperFunction,ComponentPad*%
%ADD14R,1.050000X1.500000*%
%TD*%
%TA.AperFunction,ComponentPad*%
%ADD15O,1.050000X1.500000*%
%TD*%
%TA.AperFunction,ComponentPad*%
%ADD16R,1.600000X1.600000*%
%TD*%
%TA.AperFunction,ComponentPad*%
%ADD17O,1.600000X1.600000*%
%TD*%
%TA.AperFunction,ComponentPad*%
%ADD18C,1.524000*%
%TD*%
%TA.AperFunction,ComponentPad*%
%ADD19C,3.000000*%
%TD*%
%TA.AperFunction,ViaPad*%
%ADD20C,0.800000*%
%TD*%
%TA.AperFunction,Conductor*%
%ADD21C,0.250000*%
%TD*%
G04 APERTURE END LIST*
D10*
%TO.P,R1,1*%
%TO.N,Net-(A1-Pad12)*%
X115080000Y-101600000D03*
D11*
%TO.P,R1,2*%
%TO.N,+3.3V*%
X122700000Y-101600000D03*
%TD*%
D12*
%TO.P,U3,1,vbl*%
%TO.N,vbl*%
X161560000Y-76200000D03*
D13*
%TO.P,U3,2,hb*%
%TO.N,hb*%
X164100000Y-76200000D03*
%TO.P,U3,3,GND*%
%TO.N,Net-(U3-Pad8)*%
X166640000Y-76200000D03*
%TO.P,U3,4,vbr*%
%TO.N,vbr*%
X169180000Y-76200000D03*
%TO.P,U3,5,DP*%
%TO.N,GND*%
X171720000Y-76200000D03*
%TO.P,U3,6,vtr*%
%TO.N,vtr*%
X171720000Y-60960000D03*
%TO.P,U3,7,ht*%
%TO.N,ht*%
X169180000Y-60960000D03*
%TO.P,U3,8,GND*%
%TO.N,Net-(U3-Pad8)*%
X166640000Y-60960000D03*
%TO.P,U3,9,vtl*%
%TO.N,vtl*%
X164100000Y-60960000D03*
%TO.P,U3,10,hm*%
%TO.N,hm*%
X161560000Y-60960000D03*
%TD*%
D14*
%TO.P,Q2,1,E*%
%TO.N,GND*%
X149073625Y-83771890D03*
D15*
%TO.P,Q2,2,B*%
%TO.N,seg2*%
X150343625Y-83771890D03*
%TO.P,Q2,3,C*%
%TO.N,Net-(U2-Pad8)*%
X151613625Y-83771890D03*
%TD*%
D14*
%TO.P,Q3,1,E*%
%TO.N,GND*%
X165100000Y-83820000D03*
D15*
%TO.P,Q3,2,B*%
%TO.N,seg3*%
X166370000Y-83820000D03*
%TO.P,Q3,3,C*%
%TO.N,Net-(U3-Pad8)*%
X167640000Y-83820000D03*
%TD*%
D16*
%TO.P,A1,1,TX1*%
%TO.N,unconnected-(A1-Pad1)*%
X130810000Y-106670000D03*
D17*
%TO.P,A1,2,RX1*%
%TO.N,Net-(A1-Pad2)*%
X133350000Y-106670000D03*
%TO.P,A1,3,~{RESET}*%
%TO.N,unconnected-(A1-Pad3)*%
X135890000Y-106670000D03*
%TO.P,A1,4,GND*%
%TO.N,GND*%
X138430000Y-106670000D03*
%TO.P,A1,5,D2*%
%TO.N,seg3*%
X140970000Y-106670000D03*
%TO.P,A1,6,D3*%
%TO.N,seg2*%
X143510000Y-106670000D03*
%TO.P,A1,7,D4*%
%TO.N,seg1*%
X146050000Y-106670000D03*
%TO.P,A1,8,D5*%
%TO.N,hm*%
X148590000Y-106670000D03*
%TO.P,A1,9,D6*%
%TO.N,vbr*%
X151130000Y-106670000D03*
%TO.P,A1,10,D7*%
%TO.N,hb*%
X153670000Y-106670000D03*
%TO.P,A1,11,D8*%
%TO.N,vbl*%
X156210000Y-106670000D03*
%TO.P,A1,12,D9*%
%TO.N,Net-(A1-Pad12)*%
X158750000Y-106670000D03*
%TO.P,A1,13,D10*%
%TO.N,Net-(A1-Pad13)*%
X161290000Y-106670000D03*
%TO.P,A1,14,MOSI*%
%TO.N,unconnected-(A1-Pad14)*%
X163830000Y-106670000D03*
%TO.P,A1,15,MISO*%
%TO.N,unconnected-(A1-Pad15)*%
X166370000Y-106670000D03*
%TO.P,A1,16,SCK*%
%TO.N,unconnected-(A1-Pad16)*%
X166370000Y-91430000D03*
%TO.P,A1,17,3V3*%
%TO.N,+3.3V*%
X163830000Y-91430000D03*
%TO.P,A1,18,AREF*%
%TO.N,unconnected-(A1-Pad18)*%
X161290000Y-91430000D03*
%TO.P,A1,19,A0*%
%TO.N,unconnected-(A1-Pad19)*%
X158750000Y-91430000D03*
%TO.P,A1,20,A1*%
%TO.N,unconnected-(A1-Pad20)*%
X156210000Y-91430000D03*
%TO.P,A1,21,A2*%
%TO.N,unconnected-(A1-Pad21)*%
X153670000Y-91430000D03*
%TO.P,A1,22,A3*%
%TO.N,unconnected-(A1-Pad22)*%
X151130000Y-91430000D03*
%TO.P,A1,23,SDA/A4*%
%TO.N,unconnected-(A1-Pad23)*%
X148590000Y-91430000D03*
%TO.P,A1,24,SCL/A5*%
%TO.N,unconnected-(A1-Pad24)*%
X146050000Y-91430000D03*
%TO.P,A1,25,A6*%
%TO.N,unconnected-(A1-Pad25)*%
X143510000Y-91430000D03*
%TO.P,A1,26,A7*%
%TO.N,unconnected-(A1-Pad26)*%
X140970000Y-91430000D03*
%TO.P,A1,27,+5V*%
%TO.N,+5V*%
X138430000Y-91430000D03*
%TO.P,A1,28,~{RESET}*%
%TO.N,unconnected-(A1-Pad28)*%
X135890000Y-91430000D03*
%TO.P,A1,29,GND*%
%TO.N,GND*%
X133350000Y-91430000D03*
%TO.P,A1,30,VIN*%
%TO.N,unconnected-(A1-Pad30)*%
X130810000Y-91430000D03*
%TD*%
D10*
%TO.P,R2,1*%
%TO.N,Net-(A1-Pad13)*%
X115300000Y-93980000D03*
D11*
%TO.P,R2,2*%
%TO.N,+3.3V*%
X122920000Y-93980000D03*
%TD*%
D12*
%TO.P,U2,1,vbl*%
%TO.N,vbl*%
X145580000Y-76200000D03*
D13*
%TO.P,U2,2,hb*%
%TO.N,hb*%
X148120000Y-76200000D03*
%TO.P,U2,3,GND*%
%TO.N,Net-(U2-Pad8)*%
X150660000Y-76200000D03*
%TO.P,U2,4,vbr*%
%TO.N,vbr*%
X153200000Y-76200000D03*
%TO.P,U2,5,DP*%
%TO.N,+3.3V*%
X155740000Y-76200000D03*
%TO.P,U2,6,vtr*%
%TO.N,vtr*%
X155740000Y-60960000D03*
%TO.P,U2,7,ht*%
%TO.N,ht*%
X153200000Y-60960000D03*
%TO.P,U2,8,GND*%
%TO.N,Net-(U2-Pad8)*%
X150660000Y-60960000D03*
%TO.P,U2,9,vtl*%
%TO.N,vtl*%
X148120000Y-60960000D03*
%TO.P,U2,10,hm*%
%TO.N,hm*%
X145580000Y-60960000D03*
%TD*%
D18*
%TO.P,U5,1,GND*%
%TO.N,GND*%
X109220000Y-92710000D03*
%TO.P,U5,2,V+*%
%TO.N,+5V*%
X109220000Y-97790000D03*
%TO.P,U5,3,ctrl*%
%TO.N,Net-(A1-Pad2)*%
X109220000Y-102870000D03*
%TD*%
D14*
%TO.P,Q1,1,E*%
%TO.N,GND*%
X133160000Y-83940046D03*
D15*
%TO.P,Q1,2,B*%
%TO.N,seg1*%
X134430000Y-83940046D03*
%TO.P,Q1,3,C*%
%TO.N,Net-(U1-Pad8)*%
X135700000Y-83940046D03*
%TD*%
D12*
%TO.P,U1,1,vbl*%
%TO.N,vbl*%
X129640000Y-76390000D03*
D13*
%TO.P,U1,2,hb*%
%TO.N,hb*%
X132180000Y-76390000D03*
%TO.P,U1,3,GND*%
%TO.N,Net-(U1-Pad8)*%
X134720000Y-76390000D03*
%TO.P,U1,4,vbr*%
%TO.N,vbr*%
X137260000Y-76390000D03*
%TO.P,U1,5,DP*%
%TO.N,GND*%
X139800000Y-76390000D03*
%TO.P,U1,6,vtr*%
%TO.N,vtr*%
X139800000Y-61150000D03*
%TO.P,U1,7,ht*%
%TO.N,ht*%
X137260000Y-61150000D03*
%TO.P,U1,8,GND*%
%TO.N,Net-(U1-Pad8)*%
X134720000Y-61150000D03*
%TO.P,U1,9,vtl*%
%TO.N,vtl*%
X132180000Y-61150000D03*
%TO.P,U1,10,hm*%
%TO.N,hm*%
X129640000Y-61150000D03*
%TD*%
D19*
%TO.P,U4,1,V+*%
%TO.N,+3.3V*%
X116840000Y-80010000D03*
%TO.P,U4,2,SDA*%
%TO.N,Net-(A1-Pad13)*%
X116840000Y-74930000D03*
%TO.P,U4,3,GND*%
%TO.N,GND*%
X116840000Y-69850000D03*
%TO.P,U4,4,SCL*%
%TO.N,Net-(A1-Pad12)*%
X116840000Y-64770000D03*
%TD*%
D20*
%TO.N,seg2*%
X144780000Y-99060000D03*
%TO.N,hm*%
X140970000Y-101600000D03*
%TO.N,vbr*%
X147320000Y-88900000D03*
X152400000Y-87630000D03*
X163830000Y-72390000D03*
%TO.N,+3.3V*%
X173990000Y-92710000D03*
%TD*%
D21*
%TO.N,Net-(A1-Pad12)*%
X111492749Y-101600000D02*
X115080000Y-101600000D01*
X116840000Y-64770000D02*
X109220000Y-64770000D01*
X106680000Y-67310000D02*
X106680000Y-96787251D01*
X109220000Y-64770000D02*
X106680000Y-67310000D01*
X106680000Y-96787251D02*
X111492749Y-101600000D01*
%TO.N,Net-(A1-Pad13)*%
X115300000Y-93980000D02*
X114100000Y-92780000D01*
X114100000Y-77670000D02*
X116840000Y-74930000D01*
X114100000Y-92780000D02*
X114100000Y-77670000D01*
%TO.N,seg3*%
X166370000Y-85090000D02*
X170180000Y-88900000D01*
X170180000Y-88900000D02*
X170180000Y-109220000D01*
X166370000Y-83820000D02*
X166370000Y-85090000D01*
X143520000Y-109220000D02*
X140970000Y-106670000D01*
X170180000Y-109220000D02*
X143520000Y-109220000D01*
%TO.N,seg2*%
X143510000Y-100330000D02*
X144780000Y-99060000D01*
X143510000Y-106670000D02*
X143510000Y-100330000D01*
%TO.N,seg1*%
X144770000Y-107950000D02*
X143199009Y-107950000D01*
X142240000Y-106990991D02*
X142240000Y-90170000D01*
X134430000Y-86170000D02*
X134430000Y-83940046D01*
X143199009Y-107950000D02*
X142240000Y-106990991D01*
X139700000Y-87630000D02*
X142240000Y-90170000D01*
X135890000Y-87630000D02*
X139700000Y-87630000D01*
X135890000Y-87630000D02*
X134430000Y-86170000D01*
X146050000Y-106670000D02*
X144770000Y-107950000D01*
%TO.N,hm*%
X129640000Y-61150000D02*
X125730000Y-65060000D01*
X139389009Y-101600000D02*
X140970000Y-101600000D01*
X125730000Y-65060000D02*
X125730000Y-87940991D01*
X125730000Y-87940991D02*
X139389009Y-101600000D01*
%TO.N,vbr*%
X153200000Y-76200000D02*
X157010000Y-72390000D01*
X151130000Y-96520000D02*
X152400000Y-95250000D01*
X152400000Y-95250000D02*
X152400000Y-87630000D01*
X137260000Y-83920000D02*
X142240000Y-88900000D01*
X153200000Y-84290000D02*
X153200000Y-76200000D01*
X152400000Y-85090000D02*
X153200000Y-84290000D01*
X157010000Y-72390000D02*
X163830000Y-72390000D01*
X137260000Y-76390000D02*
X137260000Y-83920000D01*
X142240000Y-88900000D02*
X147320000Y-88900000D01*
X151130000Y-106670000D02*
X151130000Y-96520000D01*
X152400000Y-87630000D02*
X152400000Y-85090000D01*
%TO.N,hb*%
X149715000Y-88755000D02*
X146050000Y-85090000D01*
X146050000Y-85090000D02*
X146050000Y-81280000D01*
X146050000Y-81280000D02*
X148120000Y-79210000D01*
X150819009Y-107950000D02*
X149715000Y-106845991D01*
X148120000Y-79210000D02*
X148120000Y-76200000D01*
X149715000Y-106845991D02*
X149715000Y-88755000D01*
X153670000Y-106670000D02*
X152390000Y-107950000D01*
X152390000Y-107950000D02*
X150819009Y-107950000D01*
%TO.N,vbl*%
X168910000Y-92710000D02*
X168910000Y-90170000D01*
X168910000Y-90170000D02*
X161290000Y-82550000D01*
X156210000Y-105410000D02*
X168910000Y-92710000D01*
X161560000Y-82280000D02*
X161560000Y-76200000D01*
X161290000Y-82550000D02*
X161560000Y-82280000D01*
X156210000Y-106670000D02*
X156210000Y-105410000D01*
%TO.N,+3.3V*%
X123190000Y-110490000D02*
X173990000Y-110490000D01*
X122920000Y-93980000D02*
X122920000Y-86090000D01*
X163830000Y-91430000D02*
X163830000Y-88900000D01*
X155740000Y-80810000D02*
X155740000Y-76200000D01*
X163830000Y-88900000D02*
X155740000Y-80810000D01*
X122920000Y-86090000D02*
X116840000Y-80010000D01*
X122700000Y-101600000D02*
X122700000Y-110000000D01*
X122700000Y-101600000D02*
X122700000Y-94200000D01*
X173990000Y-110490000D02*
X173990000Y-92710000D01*
X122700000Y-110000000D02*
X123190000Y-110490000D01*
%TO.N,Net-(U1-Pad8)*%
X134720000Y-76390000D02*
X135700000Y-77370000D01*
X134720000Y-61150000D02*
X134720000Y-76390000D01*
X135700000Y-77370000D02*
X135700000Y-83940046D01*
%TO.N,Net-(U2-Pad8)*%
X151613625Y-77153625D02*
X151613625Y-83771890D01*
X150660000Y-60960000D02*
X150660000Y-76200000D01*
X150660000Y-76200000D02*
X151613625Y-77153625D01*
%TO.N,Net-(U3-Pad8)*%
X166640000Y-76200000D02*
X167640000Y-77200000D01*
X166640000Y-60960000D02*
X166640000Y-76200000D01*
X167640000Y-77200000D02*
X167640000Y-83820000D01*
%TO.N,vtr*%
X171720000Y-60960000D02*
X170133000Y-59373000D01*
X170133000Y-59373000D02*
X157327000Y-59373000D01*
X157327000Y-59373000D02*
X155740000Y-60960000D01*
%TD*%
M02*
