%TF.GenerationSoftware,KiCad,Pcbnew,7.0.1-3b83917a11~171~ubuntu22.04.1*%
%TF.CreationDate,2023-04-03T10:37:19-06:00*%
%TF.ProjectId,temp_reader,74656d70-5f72-4656-9164-65722e6b6963,rev?*%
%TF.SameCoordinates,Original*%
%TF.FileFunction,Soldermask,Bot*%
%TF.FilePolarity,Negative*%
%FSLAX46Y46*%
G04 Gerber Fmt 4.6, Leading zero omitted, Abs format (unit mm)*
G04 Created by KiCad (PCBNEW 7.0.1-3b83917a11~171~ubuntu22.04.1) date 2023-04-03 10:37:19*
%MOMM*%
%LPD*%
G01*
G04 APERTURE LIST*
%ADD10C,1.500000*%
%ADD11O,1.050000X1.500000*%
%ADD12R,1.050000X1.500000*%
%ADD13R,1.600000X1.600000*%
%ADD14O,1.600000X1.600000*%
%ADD15R,1.524000X2.524000*%
%ADD16O,1.524000X2.524000*%
G04 APERTURE END LIST*
D10*
%TO.C,R2*%
X123000000Y-86500000D03*
X123000000Y-79000000D03*
%TD*%
%TO.C,U4*%
X123000000Y-99500000D03*
X123000000Y-97000000D03*
X123000000Y-94500000D03*
X123000000Y-92000000D03*
%TD*%
%TO.C,R1*%
X123000000Y-75750000D03*
X123000000Y-68250000D03*
%TD*%
%TO.C,U5*%
X123000000Y-61000000D03*
X123000000Y-63000000D03*
X123000000Y-65000000D03*
%TD*%
D11*
%TO.C,Q2*%
X152270000Y-83360000D03*
X151000000Y-83360000D03*
D12*
X149730000Y-83360000D03*
%TD*%
D11*
%TO.C,Q3*%
X165770000Y-83220000D03*
X164500000Y-83220000D03*
D12*
X163230000Y-83220000D03*
%TD*%
D13*
%TO.C,A1*%
X130840000Y-103240000D03*
D14*
X133380000Y-103240000D03*
X135920000Y-103240000D03*
X138460000Y-103240000D03*
X141000000Y-103240000D03*
X143540000Y-103240000D03*
X146080000Y-103240000D03*
X148620000Y-103240000D03*
X151160000Y-103240000D03*
X153700000Y-103240000D03*
X156240000Y-103240000D03*
X158780000Y-103240000D03*
X161320000Y-103240000D03*
X163860000Y-103240000D03*
X166400000Y-103240000D03*
X166400000Y-88000000D03*
X163860000Y-88000000D03*
X161320000Y-88000000D03*
X158780000Y-88000000D03*
X156240000Y-88000000D03*
X153700000Y-88000000D03*
X151160000Y-88000000D03*
X148620000Y-88000000D03*
X146080000Y-88000000D03*
X143540000Y-88000000D03*
X141000000Y-88000000D03*
X138460000Y-88000000D03*
X135920000Y-88000000D03*
X133380000Y-88000000D03*
X130840000Y-88000000D03*
%TD*%
D15*
%TO.C,U2*%
X145580000Y-76620000D03*
D16*
X148120000Y-76620000D03*
X150660000Y-76620000D03*
X153200000Y-76620000D03*
X155740000Y-76620000D03*
X155740000Y-61380000D03*
X153200000Y-61380000D03*
X150660000Y-61380000D03*
X148120000Y-61380000D03*
X145580000Y-61380000D03*
%TD*%
D15*
%TO.C,U3*%
X159500000Y-76500000D03*
D16*
X162040000Y-76500000D03*
X164580000Y-76500000D03*
X167120000Y-76500000D03*
X169660000Y-76500000D03*
X169660000Y-61260000D03*
X167120000Y-61260000D03*
X164580000Y-61260000D03*
X162040000Y-61260000D03*
X159500000Y-61260000D03*
%TD*%
D11*
%TO.C,Q1*%
X138000000Y-83360000D03*
X136730000Y-83360000D03*
D12*
X135460000Y-83360000D03*
%TD*%
D15*
%TO.C,U1*%
X131420000Y-76620000D03*
D16*
X133960000Y-76620000D03*
X136500000Y-76620000D03*
X139040000Y-76620000D03*
X141580000Y-76620000D03*
X141580000Y-61380000D03*
X139040000Y-61380000D03*
X136500000Y-61380000D03*
X133960000Y-61380000D03*
X131420000Y-61380000D03*
%TD*%
M02*
